# xmcd
#
# Track frame offsets: 
#        150
#        16860
#        44199
#        65758
#        84620
#        99872
#        115983
#        140195
#        151365
#        172108
#        196811
#        225797
#
# Disc length: 3231 seconds
#
# Revision: 4
# Processed by: cddbd v1.5.2PL0 Copyright (c) Steve Scherf et al.
# Submitted via: ExactAudioCopy v0.99pb5
#
DISCID=9f0c9d0c
DTITLE=馬修連恩 - 美麗新世界
DYEAR=1900
DGENRE=New Age
TTITLE0=Maame Asaase (Mother Earth)大地之母
TTITLE1=Tikal提卡爾
TTITLE2=Common Thread生命共同體
TTITLE3=The Flower and the Stream花與溪
TTITLE4=Blood for Ivory血象牙
TTITLE5=She她
TTITLE6=Via Con Dios神佑
TTITLE7=Kicking Up The Dirt塵土飛揚
TTITLE8=Sweet Earth of the Kao-Ping: The Highlands高屏美地
TTITLE9=Liberation自由
TTITLE10=When the Earth Calls Her Children Home大地的呼喚
TTITLE11=Parting離別
EXTD=
EXTT0=
EXTT1=
EXTT2=
EXTT3=
EXTT4=
EXTT5=
EXTT6=
EXTT7=
EXTT8=
EXTT9=
EXTT10=
EXTT11=
PLAYORDER=
